<?xml version="1.0" encoding="UTF-8"?>
<svg xmlns="http://www.w3.org/2000/svg" xmlns:xlink="http://www.w3.org/1999/xlink" viewBox="0 0 26 26" width="26px" height="26px">
<g id="surface3666184">
<path style=" stroke:none;fill-rule:nonzero;fill:rgb(33.725491%,33.725491%,33.725491%);fill-opacity:1;" d="M 12.96875 0.03125 C 5.378906 0.332031 2.355469 5.648438 2.28125 5.78125 C -2.328125 13.097656 1.78125 19.53125 1.78125 19.53125 C 5.824219 25.9375 11.875 25.910156 12.0625 25.90625 L 12.09375 25.90625 C 20.722656 26.230469 24.21875 19.46875 24.21875 19.46875 C 27.730469 12.792969 24.714844 7.550781 24.59375 7.34375 L 24.625 7.34375 C 20.589844 -0.304688 12.96875 0.03125 12.96875 0.03125 Z M 2.3125 5.8125 L 7.3125 10.78125 C 8.207031 8.507812 10.40625 6.875 13 6.875 C 13.839844 6.875 14.648438 7.039062 15.375 7.34375 L 24.53125 7.34375 L 17.875 9.3125 C 18.65625 10.339844 19.125 11.609375 19.125 13 C 19.125 14.988281 18.15625 16.757812 16.6875 17.875 C 15.117188 20.59375 12.808594 24.609375 12.09375 25.84375 L 13.71875 19.0625 C 13.484375 19.089844 13.242188 19.125 13 19.125 C 9.914062 19.125 7.359375 16.847656 6.9375 13.875 C 5.367188 11.15625 3.03125 7.058594 2.3125 5.8125 Z M 13 8.1875 C 10.34375 8.1875 8.1875 10.34375 8.1875 13 C 8.1875 15.65625 10.34375 17.8125 13 17.8125 C 15.65625 17.8125 17.8125 15.65625 17.8125 13 C 17.8125 10.34375 15.65625 8.1875 13 8.1875 Z M 13 8.1875 "/>
</g>
</svg>
