<svg xmlns="http://www.w3.org/2000/svg"  viewBox="0 0 80 80" width="16px" height="16px"><path fill="#f78f8f" d="M64.75,53c0,13.255-11.081,24-24.75,24S15.25,66.255,15.25,53c0-18,22.687-33,22.687-50	c5.153,2.498,13.406,11.33,13.406,23c0,5-1.031,10-1.031,10c6.188-2,6.188-9,6.188-9S64.75,38,64.75,53z"/><path fill="#ffeea3" d="M39.589,35c0.219,1.049,0.336,2.135,0.336,3.249c0,12.139-13.045,13.073-14.627,22.782 C24.162,68.012,27.961,77,39.486,77c8.509,0,15.407-7.525,15.407-16.808C54.893,51.03,42.164,35.403,39.589,35z"/><path fill="#c74343" d="M40,77.5c-13.923,0-25.25-10.991-25.25-24.5c0-9.286,5.936-17.788,11.677-26.009	C32.089,18.881,37.438,11.221,37.438,3c0-0.172,0.088-0.333,0.234-0.424C37.818,2.485,38,2.475,38.156,2.55	C43.839,5.305,51.844,14.402,51.844,26c0,3.755-0.583,7.546-0.877,9.217C55.939,33.027,56,27.063,56,27	c0-0.215,0.138-0.406,0.342-0.474c0.205-0.069,0.429,0.002,0.558,0.174c0.083,0.111,8.35,11.307,8.35,26.3	C65.25,66.509,53.923,77.5,40,77.5z M38.42,3.816c-0.346,8.24-5.848,16.119-11.174,23.747C21.595,35.658,15.75,44.029,15.75,53	c0,12.958,10.878,23.5,24.25,23.5S64.25,65.958,64.25,53c0-11.964-5.372-21.442-7.394-24.584c-0.369,2.25-1.688,6.54-6.39,8.06	c-0.169,0.056-0.355,0.015-0.487-0.103c-0.133-0.119-0.192-0.299-0.156-0.474c0.01-0.049,1.021-5.011,1.021-9.899	C50.844,15.305,43.803,6.833,38.42,3.816z"/></svg>