<?xml version="1.0" encoding="UTF-8"?>
<svg xmlns="http://www.w3.org/2000/svg" xmlns:xlink="http://www.w3.org/1999/xlink" viewBox="0 0 48 48" width="48px" height="48px">
<g id="surface3694473">
<path style=" stroke:none;fill-rule:nonzero;fill:rgb(45.882353%,45.882353%,45.882353%);fill-opacity:1;" d="M 36 35 C 36.546875 39.382812 38.238281 43 41 43 C 43.761719 43 46 40 46 35 C 46 25 44 20 41 17 C 40 17 35 17 35 17 C 35 17 35 27 36 35 Z M 12 35 C 11.453125 39.382812 9.761719 43 7 43 C 4.238281 43 2 40 2 35 C 2 25 4 20 7 17 C 8 17 13 17 13 17 C 13 17 13 27 12 35 Z M 31 43 L 17 43 L 17 12 C 18.105469 12 19 11.105469 19 10 L 29 10 C 29 11.105469 29.894531 12 31 12 Z M 31 43 "/>
<path style=" stroke:none;fill-rule:nonzero;fill:rgb(25.882354%,25.882354%,25.882354%);fill-opacity:1;" d="M 32 6 L 32 14 L 31 14 L 31 12 C 29.898438 12 29 11.101562 29 10 L 29 6 Z M 41 32 C 41 36.230469 40.765625 39 39.164062 39 C 37.570312 39 36.585938 35.941406 36.277344 32.230469 C 36.160156 30.859375 36.0625 29.421875 36 28 L 40.980469 28 C 41 29.210938 41 30.539062 41 32 Z M 15 17 L 6 17 C 6 12.582031 9.582031 9 14 9 L 15 9 Z M 42 11 L 33 11 L 33 3 L 34 3 C 38.417969 3 42 6.582031 42 11 Z M 42 11 "/>
<path style=" stroke:none;fill-rule:nonzero;fill:rgb(89.803922%,45.09804%,45.09804%);fill-opacity:1;" d="M 31 37 L 34 37 C 37.867188 37 41 33.867188 41 30 L 41 11 C 41 7.132812 37.867188 4 34 4 L 31 4 Z M 31 37 "/>
<path style=" stroke:none;fill-rule:nonzero;fill:rgb(30.980393%,76.47059%,96.862745%);fill-opacity:1;" d="M 17 43 L 14 43 C 10.132812 43 7 39.867188 7 36 L 7 17 C 7 13.132812 10.132812 10 14 10 L 17 10 Z M 17 43 "/>
<path style=" stroke:none;fill-rule:nonzero;fill:rgb(45.882353%,45.882353%,45.882353%);fill-opacity:1;" d="M 34 26 C 32.894531 26 32 26.894531 32 28 C 32 29.105469 32.894531 30 34 30 C 35.105469 30 36 29.105469 36 28 C 36 26.894531 35.105469 26 34 26 Z M 34 26 "/>
<path style=" stroke:none;fill-rule:nonzero;fill:rgb(87.843138%,87.843138%,87.843138%);fill-opacity:1;" d="M 23 28 L 22 28 C 20.894531 28 20 27.105469 20 26 L 20 24 C 20 22.894531 20.894531 22 22 22 L 23 22 Z M 23 28 "/>
<path style=" stroke:none;fill-rule:nonzero;fill:rgb(25.882354%,25.882354%,25.882354%);fill-opacity:1;" d="M 36 9 C 35.449219 9 35 9.449219 35 10 C 35 10.550781 35.449219 11 36 11 C 36.550781 11 37 10.550781 37 10 C 37 9.449219 36.550781 9 36 9 Z M 38 11 C 37.449219 11 37 11.449219 37 12 C 37 12.550781 37.449219 13 38 13 C 38.550781 13 39 12.550781 39 12 C 39 11.449219 38.550781 11 38 11 Z M 34 11 C 33.449219 11 33 11.449219 33 12 C 33 12.550781 33.449219 13 34 13 C 34.550781 13 35 12.550781 35 12 C 35 11.449219 34.550781 11 34 11 Z M 36 13 C 35.449219 13 35 13.449219 35 14 C 35 14.550781 35.449219 15 36 15 C 36.550781 15 37 14.550781 37 14 C 37 13.449219 36.550781 13 36 13 Z M 12 23 C 11.449219 23 11 23.449219 11 24 C 11 24.550781 11.449219 25 12 25 C 12.550781 25 13 24.550781 13 24 C 13 23.449219 12.550781 23 12 23 Z M 12 15 C 10.894531 15 10 15.894531 10 17 C 10 18.105469 10.894531 19 12 19 C 13.105469 19 14 18.105469 14 17 C 14 15.894531 13.105469 15 12 15 Z M 36 19 C 34.894531 19 34 19.894531 34 21 C 34 22.105469 34.894531 23 36 23 C 37.105469 23 38 22.105469 38 21 C 38 19.894531 37.105469 19 36 19 Z M 14 25 C 13.449219 25 13 25.449219 13 26 C 13 26.550781 13.449219 27 14 27 C 14.550781 27 15 26.550781 15 26 C 15 25.449219 14.550781 25 14 25 Z M 10 25 C 9.449219 25 9 25.449219 9 26 C 9 26.550781 9.449219 27 10 27 C 10.550781 27 11 26.550781 11 26 C 11 25.449219 10.550781 25 10 25 Z M 12 27 C 11.449219 27 11 27.449219 11 28 C 11 28.550781 11.449219 29 12 29 C 12.550781 29 13 28.550781 13 28 C 13 27.449219 12.550781 27 12 27 Z M 26 28 L 25 28 L 25 22 L 26 22 C 27.105469 22 28 22.894531 28 24 L 28 26 C 28 27.105469 27.105469 28 26 28 Z M 34 27 C 33.449219 27 33 27.449219 33 28 C 33 28.550781 33.449219 29 34 29 C 34.550781 29 35 28.550781 35 28 C 35 27.449219 34.550781 27 34 27 Z M 34 27 "/>
</g>
</svg>
