<?xml version="1.0" encoding="UTF-8"?>
<svg xmlns="http://www.w3.org/2000/svg" xmlns:xlink="http://www.w3.org/1999/xlink" viewBox="0 0 48 48" width="48px" height="48px">
<g id="surface3599371">
<path style=" stroke:none;fill-rule:nonzero;fill:rgb(18.039216%,80.000001%,44.313726%);fill-opacity:1;" d="M 24 4 C 20.75 4 16.75 5.007812 13.75 6.8125 C 13.632812 6.882812 13.414062 7.070312 13.1875 7.25 C 16.46875 5.375 23.835938 11.242188 24 11.375 C 24.164062 11.242188 31.53125 5.382812 34.8125 7.25 C 34.585938 7.070312 34.367188 6.882812 34.25 6.8125 C 31.25 5.007812 27.757812 4 24 4 Z M 11.375 9.1875 C 10.703125 9.296875 9.960938 9.742188 9.3125 10.4375 C 6.007812 14.007812 4 18.757812 4 24 C 4 29.179688 5.953125 33.882812 9.1875 37.4375 C 8.125 32.304688 9.109375 28.703125 12 24 C 14.898438 19.296875 20 14 20 14 C 15.796875 10.03125 12.820312 9.328125 12.0625 9.1875 C 11.859375 9.148438 11.601562 9.148438 11.375 9.1875 Z M 9.1875 37.4375 C 12.84375 41.460938 18.15625 44 24 44 C 29.859375 44 35.15625 41.453125 38.8125 37.4375 C 38.804688 37.382812 38.382812 34.789062 35.6875 31.0625 C 33.585938 28.15625 27.335938 21.164062 24 18 C 20.664062 21.164062 14.414062 28.09375 12.3125 31 C 9.617188 34.71875 9.195312 37.375 9.1875 37.4375 Z M 38.8125 37.4375 C 42.039062 33.882812 44 29.179688 44 24 C 44 18.757812 41.992188 14.007812 38.6875 10.4375 C 37.828125 9.507812 36.734375 9.039062 35.9375 9.1875 C 35.179688 9.328125 32.203125 10.03125 28 14 C 28 14 33.101562 19.296875 36 24 C 38.890625 28.703125 39.875 32.304688 38.8125 37.4375 Z M 38.8125 37.4375 "/>
</g>
</svg>
